<?xml version="1.0" standalone="yes"?>
<!DOCTYPE svg PUBLIC "-//W3C//DTD SVG 1.1//EN" "http://www.w3.org/Graphics/SVG/1.1/DTD/svg11.dtd"[
<!ENTITY E32 'matrix(1.00 0.00 0.00 1.00 84.00 4.00 ) '><!ENTITY E12 'matrix(1.00 0.00 0.00 1.00 244.00 164.00 ) '><!ENTITY E11 'matrix(1.00 0.00 0.00 1.00 0.00 0.00 ) '><!ENTITY E6 'stroke:none;opacity:1;fill:rgb(155,91,179);'><!ENTITY E20 'M 11.085 22.137 14.2178 8.273999 '><!ENTITY E8 'stroke:none;fill-rule:evenodd;opacity:1;fill:rgb(255,255,255);'><!ENTITY E4 'stroke:rgb(169,169,169);fill:none;stroke-linecap:butt;stroke-miterlimit:9;opacity:1;stroke-width:2;stroke-linejoin:miter;'><!ENTITY E2 'stroke-dasharray:4.00 2.00 ;stroke:rgb(169,169,169);fill:none;stroke-linecap:butt;stroke-miterlimit:9;opacity:1;stroke-width:1;stroke-linejoin:miter;'><!ENTITY E17 'stroke:none;opacity:1;fill:rgb(91,178,126);'><!ENTITY E23 'M 15 0 C 15.40124 0 15.79355 0 16.1868 0.032679 L 17.4764 1.671279 C 18.19501 1.803959 18.878 1.976879 19.5521 2.217729 L 21.4286 1.483419 C 22.13968 1.823279 22.8289 2.226899 23.4726 2.670219 L 23.8493 4.621219 C 24.39461 5.086599 24.9133 5.605469 25.3788 6.150719 L 27.3298 6.494379 C 27.77262 7.137679 28.17707 7.860779 28.5166 8.57128 L 27.74584 10.44788 C 27.98674 11.12204 28.19601 11.80508 28.32852 12.52348 L 29.96712 13.81308 C 29.99807 14.2062 30.00009 14.59888 30.00009 14.99988 30.00009 15.39224 29.99671 15.76908 29.96712 16.15388 L 28.32852 17.43998 C 28.19832 18.14633 28.01721 18.85248 27.78226 19.51558 L 28.51657 21.42868 C 28.17593 22.14291 27.77461 22.82648 27.32977 23.47268 L 25.37877 23.81302 C 24.91321 24.35829 24.39455 24.87682 23.84927 25.34242 L 23.47257 27.32992 C 22.82847 27.77371 22.14007 28.17669 21.42857 28.51662 L 19.51567 27.74597 C 18.85121 27.98162 18.18377 28.19809 17.47627 28.32876 L 16.18677 29.93436 C 15.79348 29.965 15.40117 29.99982 14.99997 29.99982 14.59873 29.99982 14.17345 29.96607 13.78017 29.93436 L 12.55997 28.32876 C 11.86172 28.19999 11.14067 27.977 10.48427 27.74597 L 8.571372 28.51662 C 7.856242 28.17558 7.174472 27.7755 6.527372 27.32992 L 6.150662 25.30622 C 5.617232 24.84794 5.114162 24.34789 4.657562 23.81302 L 2.670162 23.47268 C 2.225282 22.82649 1.823962 22.14288 1.483362 21.42868 L 2.254122 19.51558 C 2.022912 18.85918 1.800192 18.13838 1.671442 17.43998 L 0.06584227 16.18678 C 0.03489427 15.79366 -9.272993E-05 15.4013 -9.272993E-05 14.99998 -9.272993E-05 14.59894 0.03489527 14.20625 0.06584227 13.81318 L 1.671442 12.52358 C 1.801892 11.81616 2.018542 11.14888 2.254122 10.48438 L 1.483362 8.571277 C 1.822922 7.860797 2.227392 7.137677 2.670162 6.494377 L 4.657562 6.150717 C 5.114192 5.615747 5.617242 5.115817 6.150662 4.657517 L 6.527372 2.670117 C 7.174102 2.224717 7.856672 1.824207 8.571372 1.483317 L 10.48427 2.217627 C 11.14757 1.982687 11.85387 1.801607 12.55997 1.671177 L 13.84607 0.0325768 C 14.23082 0.003004799 14.60761 -0.0001021996 14.99987 -0.0001021996 z '><!ENTITY E19 'stroke:rgb(255,255,255);fill:none;stroke-linecap:butt;stroke-miterlimit:9;opacity:1;stroke-width:2;stroke-linejoin:miter;'><!ENTITY E1 'stroke:rgb(169,169,169);fill:none;stroke-linecap:butt;stroke-miterlimit:9;opacity:1;stroke-width:1;stroke-linejoin:miter;'><!ENTITY E46 'matrix(1.00 0.00 0.00 1.00 4.00 164.00 ) '><!ENTITY E26 'M 16.849 10.062 23.4027 10.062 M 16.6038 19.6084 23.3505 19.6084 M 12.3075 17.1615 7.5719 21.8971 M 7.577335 17.152 12.31704 21.8917 M 6.564136 10.0047 13.30904 10.0047 M 9.936636 6.6288 9.936636 13.3806 '><!ENTITY E42 'matrix(1.00 0.00 0.00 1.00 4.00 4.00 ) '><!ENTITY E9 'stroke:none;opacity:1;fill:rgb(255,255,255);'><!ENTITY E16 'matrix(1.00 0.00 0.00 1.00 164.00 4.00 ) '><!ENTITY E29 'matrix(1.00 0.00 0.00 1.00 164.00 164.00 ) '><!ENTITY E5 'matrix(1.00 0.00 0.00 1.00 244.00 4.00 ) '><!ENTITY E7 'M 11.656 8.2 11.99975 8.7 16.31225 14.7937 11.65605 21.4187 11.28105 21.9187 14.74985 21.9187 14.8436 21.7624 17.9998 17.0124 18.46855 17.7 21.15605 21.7624 21.2498 21.9187 24.7498 21.9187 24.40605 21.4187 19.65605 14.6687 24.06225 8.699997 24.406 8.199997 20.9998 8.199997 20.90605 8.324997 18.68725 11.4187 C 18.46251 11.7285 18.22333 12.1062 17.9685 12.4812 17.77046 12.1547 17.58677 11.8424 17.31225 11.4187 L 15.28105 8.356197 15.1873 8.199997 11.6561 8.199997 z '><!ENTITY E24 'stroke:none;fill-rule:evenodd;opacity:1;fill:rgb(128,128,128);'><!ENTITY E25 'matrix(1.00 0.00 0.00 1.00 164.00 84.00 ) '><!ENTITY E18 'M 7.3965 19.566 7.3965 10.8433 '><!ENTITY E44 'matrix(1.00 0.00 0.00 1.00 4.00 84.00 ) '><!ENTITY E3 'M 10.158 33.2 C 3.4054 31.7591 -1.861 26.4692 -3.271 19.71 '><!ENTITY E35 'matrix(1.00 0.00 0.00 1.00 84.00 164.00 ) '><!ENTITY E37 'stroke:rgb(255,255,255);fill:none;stroke-linecap:butt;stroke-miterlimit:9;opacity:1;stroke-width:1.2496;stroke-linejoin:miter;'><!ENTITY E15 'M 31.179 5.2 C 34.9985 11.0918 34.9814 18.682 31.13552 24.557 '>
]>
<svg width="319.1999" height="276" id="SvgGdi_output" xmlns="http://www.w3.org/2000/svg" xmlns:xlink="http://www.w3.org/1999/xlink">
  <style>text { fill: #000; } @media (prefers-color-scheme: dark) { text { fill: #eee; } }</style>
  <rect id="background" height="100.00%" style="fill:none;" width="100.00%" y="0.00" x="0.00" />
  <g style="shape-rendering:auto;" id="root_group">
    <line y1="19.00" style="stroke:rgb(169,169,169);fill:none;stroke-linecap:butt;stroke-miterlimit:9;opacity:1;stroke-width:1;stroke-linejoin:miter;" id="2" x2="240.00" y2="19.00" x1="198.00" />
    <line y1="99.00" style="stroke-dasharray:4.00 2.00 ;stroke:rgb(169,169,169);fill:none;stroke-linecap:butt;stroke-miterlimit:9;opacity:1;stroke-width:1;stroke-linejoin:miter;" id="3" x2="240.00" y2="19.00" x1="198.00" />
    <line y1="179.00" style="stroke:rgb(169,169,169);fill:none;stroke-linecap:butt;stroke-miterlimit:9;opacity:1;stroke-width:1;stroke-linejoin:miter;" id="4" x2="240.00" y2="179.00" x1="198.00" />
    <line y1="19.00" style="stroke:rgb(169,169,169);fill:none;stroke-linecap:butt;stroke-miterlimit:9;opacity:1;stroke-width:1;stroke-linejoin:miter;" id="5" x2="160.00" y2="19.00" x1="118.00" />
    <line y1="179.00" style="stroke:rgb(169,169,169);fill:none;stroke-linecap:butt;stroke-miterlimit:9;opacity:1;stroke-width:1;stroke-linejoin:miter;" id="6" x2="160.00" y2="179.00" x1="118.00" />
    <line y1="259.00" style="stroke-dasharray:4.00 2.00 ;stroke:rgb(169,169,169);fill:none;stroke-linecap:butt;stroke-miterlimit:9;opacity:1;stroke-width:1;stroke-linejoin:miter;" id="7" x2="160.00" y2="179.00" x1="118.00" />
    <line y1="19.00" style="stroke-dasharray:4.00 2.00 ;stroke:rgb(169,169,169);fill:none;stroke-linecap:butt;stroke-miterlimit:9;opacity:1;stroke-width:1;stroke-linejoin:miter;" id="8" x2="80.00" y2="19.00" x1="38.00" />
    <line y1="19.00" style="stroke-dasharray:4.00 2.00 ;stroke:rgb(169,169,169);fill:none;stroke-linecap:butt;stroke-miterlimit:9;opacity:1;stroke-width:1;stroke-linejoin:miter;" id="9" x2="80.00" y2="259.00" x1="38.00" />
    <line y1="99.00" style="stroke-dasharray:4.00 2.00 ;stroke:rgb(169,169,169);fill:none;stroke-linecap:butt;stroke-miterlimit:9;opacity:1;stroke-width:1;stroke-linejoin:miter;" id="10" x2="80.00" y2="19.00" x1="38.00" />
    <line y1="179.00" style="stroke-dasharray:4.00 2.00 ;stroke:rgb(169,169,169);fill:none;stroke-linecap:butt;stroke-miterlimit:9;opacity:1;stroke-width:1;stroke-linejoin:miter;" id="11" x2="80.00" y2="179.00" x1="38.00" />
    <path d="M 10.158 33.2 C 3.4054 31.7591 -1.861 26.4692 -3.271 19.71 " style="stroke:rgb(169,169,169);fill:none;stroke-linecap:butt;stroke-miterlimit:9;opacity:1;stroke-width:2;stroke-linejoin:miter;" transform="matrix(1.00 0.00 0.00 1.00 244.00 4.00 ) " id="45" />
    <ellipse id="46" cy="15.00" cx="15.00" transform="matrix(1.00 0.00 0.00 1.00 244.00 4.00 ) " rx="15.00" ry="15.00" style="stroke:none;opacity:1;fill:rgb(155,91,179);" />
    <path d="M 11.656 8.2 11.99975 8.7 16.31225 14.7937 11.65605 21.4187 11.28105 21.9187 14.74985 21.9187 14.8436 21.7624 17.9998 17.0124 18.46855 17.7 21.15605 21.7624 21.2498 21.9187 24.7498 21.9187 24.40605 21.4187 19.65605 14.6687 24.06225 8.699997 24.406 8.199997 20.9998 8.199997 20.90605 8.324997 18.68725 11.4187 C 18.46251 11.7285 18.22333 12.1062 17.9685 12.4812 17.77046 12.1547 17.58677 11.8424 17.31225 11.4187 L 15.28105 8.356197 15.1873 8.199997 11.6561 8.199997 z " style="stroke:none;fill-rule:evenodd;opacity:1;fill:rgb(255,255,255);" transform="matrix(1.00 0.00 0.00 1.00 244.00 4.00 ) " id="50" />
    <ellipse id="51" cy="12.78" cx="8.79" transform="matrix(1.00 0.00 0.00 1.00 244.00 4.00 ) " rx="3.00" ry="3.00" style="stroke:none;opacity:1;fill:rgb(255,255,255);" />
    <text id="52" transform="matrix(1.00 0.00 0.00 1.00 0.00 0.00 ) " x="244.00px" y="39.00px" style="stroke:none;clip-path:url(#54_text_clipper);font-family:Microsoft Sans Serif;font-size:8.25pt;opacity:1;">
      <tspan dy="8.25pt" id="56">SensorEvents</tspan>
    </text>
    <path d="M 10.158 33.2 C 3.4054 31.7591 -1.861 26.4692 -3.271 19.71 " style="stroke:rgb(169,169,169);fill:none;stroke-linecap:butt;stroke-miterlimit:9;opacity:1;stroke-width:2;stroke-linejoin:miter;" transform="matrix(1.00 0.00 0.00 1.00 244.00 164.00 ) " id="58" />
    <ellipse id="59" cy="15.00" cx="15.00" transform="matrix(1.00 0.00 0.00 1.00 244.00 164.00 ) " rx="15.00" ry="15.00" style="stroke:none;opacity:1;fill:rgb(155,91,179);" />
    <ellipse id="65" cy="9.06" cx="15.01" transform="matrix(1.00 0.00 0.00 1.00 244.00 164.00 ) " rx="3.50" ry="3.50" style="stroke:none;opacity:1;fill:rgb(255,255,255);" />
    <ellipse id="66" cy="18.49" cx="9.12" transform="matrix(1.00 0.00 0.00 1.00 244.00 164.00 ) " rx="3.50" ry="3.50" style="stroke:none;opacity:1;fill:rgb(255,255,255);" />
    <ellipse id="67" cy="18.46" cx="20.88" transform="matrix(1.00 0.00 0.00 1.00 244.00 164.00 ) " rx="3.50" ry="3.50" style="stroke:none;opacity:1;fill:rgb(255,255,255);" />
    <text id="68" transform="matrix(1.00 0.00 0.00 1.00 0.00 0.00 ) " x="244.00px" y="199.00px" style="stroke:none;clip-path:url(#70_text_clipper);font-family:Microsoft Sans Serif;font-size:8.25pt;opacity:1;">
      <tspan dy="8.25pt" id="72">Workflow</tspan>
    </text>
    <text id="74" transform="matrix(1.00 0.00 0.00 1.00 0.00 0.00 ) " x="244.00px" y="211.45px" style="stroke:none;clip-path:url(#76_text_clipper);font-family:Microsoft Sans Serif;font-size:8.25pt;opacity:1;">
      <tspan dy="8.25pt" id="78">Output</tspan>
    </text>
    <path d="M 31.179 5.2 C 34.9985 11.0918 34.9814 18.682 31.13552 24.557 " style="stroke:rgb(169,169,169);fill:none;stroke-linecap:butt;stroke-miterlimit:9;opacity:1;stroke-width:2;stroke-linejoin:miter;" transform="matrix(1.00 0.00 0.00 1.00 164.00 4.00 ) " id="83" />
    <ellipse id="84" cy="15.00" cx="15.00" transform="matrix(1.00 0.00 0.00 1.00 164.00 4.00 ) " rx="15.00" ry="15.00" style="stroke:none;opacity:1;fill:rgb(91,178,126);" />
    <path d="M 7.3965 19.566 7.3965 10.8433 " style="stroke:rgb(255,255,255);fill:none;stroke-linecap:butt;stroke-miterlimit:9;opacity:1;stroke-width:2;stroke-linejoin:miter;" transform="matrix(1.00 0.00 0.00 1.00 164.00 4.00 ) " id="90" />
    <path d="M 11.085 22.137 14.2178 8.273999 " style="stroke:rgb(255,255,255);fill:none;stroke-linecap:butt;stroke-miterlimit:9;opacity:1;stroke-width:2;stroke-linejoin:miter;" transform="matrix(1.00 0.00 0.00 1.00 164.00 4.00 ) " id="91" />
    <ellipse id="92" cy="15.15" cx="20.49" transform="matrix(1.00 0.00 0.00 1.00 164.00 4.00 ) " rx="4.18" ry="4.18" style="stroke:rgb(255,255,255);fill:none;stroke-linecap:butt;stroke-miterlimit:9;opacity:1;stroke-width:2;stroke-linejoin:miter;" />
    <text id="93" transform="matrix(1.00 0.00 0.00 1.00 0.00 0.00 ) " x="164.00px" y="39.00px" style="stroke:none;clip-path:url(#95_text_clipper);font-family:Microsoft Sans Serif;font-size:8.25pt;opacity:1;">
      <tspan dy="8.25pt" id="97">SerialRead</tspan>
    </text>
    <text id="99" transform="matrix(1.00 0.00 0.00 1.00 0.00 0.00 ) " x="164.00px" y="51.45px" style="stroke:none;clip-path:url(#101_text_clipper);font-family:Microsoft Sans Serif;font-size:8.25pt;opacity:1;">
      <tspan dy="8.25pt" id="103">Line</tspan>
    </text>
    <path d="M 15 0 C 15.40124 0 15.79355 0 16.1868 0.032679 L 17.4764 1.671279 C 18.19501 1.803959 18.878 1.976879 19.5521 2.217729 L 21.4286 1.483419 C 22.13968 1.823279 22.8289 2.226899 23.4726 2.670219 L 23.8493 4.621219 C 24.39461 5.086599 24.9133 5.605469 25.3788 6.150719 L 27.3298 6.494379 C 27.77262 7.137679 28.17707 7.860779 28.5166 8.57128 L 27.74584 10.44788 C 27.98674 11.12204 28.19601 11.80508 28.32852 12.52348 L 29.96712 13.81308 C 29.99807 14.2062 30.00009 14.59888 30.00009 14.99988 30.00009 15.39224 29.99671 15.76908 29.96712 16.15388 L 28.32852 17.43998 C 28.19832 18.14633 28.01721 18.85248 27.78226 19.51558 L 28.51657 21.42868 C 28.17593 22.14291 27.77461 22.82648 27.32977 23.47268 L 25.37877 23.81302 C 24.91321 24.35829 24.39455 24.87682 23.84927 25.34242 L 23.47257 27.32992 C 22.82847 27.77371 22.14007 28.17669 21.42857 28.51662 L 19.51567 27.74597 C 18.85121 27.98162 18.18377 28.19809 17.47627 28.32876 L 16.18677 29.93436 C 15.79348 29.965 15.40117 29.99982 14.99997 29.99982 14.59873 29.99982 14.17345 29.96607 13.78017 29.93436 L 12.55997 28.32876 C 11.86172 28.19999 11.14067 27.977 10.48427 27.74597 L 8.571372 28.51662 C 7.856242 28.17558 7.174472 27.7755 6.527372 27.32992 L 6.150662 25.30622 C 5.617232 24.84794 5.114162 24.34789 4.657562 23.81302 L 2.670162 23.47268 C 2.225282 22.82649 1.823962 22.14288 1.483362 21.42868 L 2.254122 19.51558 C 2.022912 18.85918 1.800192 18.13838 1.671442 17.43998 L 0.06584227 16.18678 C 0.03489427 15.79366 -9.272993E-05 15.4013 -9.272993E-05 14.99998 -9.272993E-05 14.59894 0.03489527 14.20625 0.06584227 13.81318 L 1.671442 12.52358 C 1.801892 11.81616 2.018542 11.14888 2.254122 10.48438 L 1.483362 8.571277 C 1.822922 7.860797 2.227392 7.137677 2.670162 6.494377 L 4.657562 6.150717 C 5.114192 5.615747 5.617242 5.115817 6.150662 4.657517 L 6.527372 2.670117 C 7.174102 2.224717 7.856672 1.824207 8.571372 1.483317 L 10.48427 2.217627 C 11.14757 1.982687 11.85387 1.801607 12.55997 1.671177 L 13.84607 0.0325768 C 14.23082 0.003004799 14.60761 -0.0001021996 14.99987 -0.0001021996 z " style="stroke:none;fill-rule:evenodd;opacity:1;fill:rgb(128,128,128);" transform="matrix(1.00 0.00 0.00 1.00 164.00 84.00 ) " id="107" />
    <path d="M 16.849 10.062 23.4027 10.062 M 16.6038 19.6084 23.3505 19.6084 M 12.3075 17.1615 7.5719 21.8971 M 7.577335 17.152 12.31704 21.8917 M 6.564136 10.0047 13.30904 10.0047 M 9.936636 6.6288 9.936636 13.3806 " style="stroke:rgb(255,255,255);fill:none;stroke-linecap:butt;stroke-miterlimit:9;opacity:1;stroke-width:2;stroke-linejoin:miter;" transform="matrix(1.00 0.00 0.00 1.00 164.00 84.00 ) " id="112" />
    <ellipse id="113" cy="16.33" cx="19.93" transform="matrix(1.00 0.00 0.00 1.00 164.00 84.00 ) " rx="1.30" ry="1.30" style="stroke:none;opacity:1;fill:rgb(255,255,255);" />
    <ellipse id="114" cy="22.83" cx="19.93" transform="matrix(1.00 0.00 0.00 1.00 164.00 84.00 ) " rx="1.30" ry="1.30" style="stroke:none;opacity:1;fill:rgb(255,255,255);" />
    <text id="115" transform="matrix(1.00 0.00 0.00 1.00 0.00 0.00 ) " x="164.00px" y="119.00px" style="stroke:none;clip-path:url(#117_text_clipper);font-family:Microsoft Sans Serif;font-size:8.25pt;opacity:1;">
      <tspan dy="8.25pt" id="119">SensorEvents</tspan>
    </text>
    <text id="121" transform="matrix(1.00 0.00 0.00 1.00 0.00 0.00 ) " x="164.00px" y="131.45px" style="stroke:none;clip-path:url(#123_text_clipper);font-family:Microsoft Sans Serif;font-size:8.25pt;opacity:1;">
      <tspan dy="8.25pt" id="125">SubjectName</tspan>
    </text>
    <path d="M 10.158 33.2 C 3.4054 31.7591 -1.861 26.4692 -3.271 19.71 " style="stroke:rgb(169,169,169);fill:none;stroke-linecap:butt;stroke-miterlimit:9;opacity:1;stroke-width:2;stroke-linejoin:miter;" transform="matrix(1.00 0.00 0.00 1.00 164.00 164.00 ) " id="127" />
    <ellipse id="128" cy="15.00" cx="15.00" transform="matrix(1.00 0.00 0.00 1.00 164.00 164.00 ) " rx="15.00" ry="15.00" style="stroke:none;opacity:1;fill:rgb(155,91,179);" />
    <path d="M 7.3965 19.566 7.3965 10.8433 " style="stroke:rgb(255,255,255);fill:none;stroke-linecap:butt;stroke-miterlimit:9;opacity:1;stroke-width:2;stroke-linejoin:miter;" transform="matrix(1.00 0.00 0.00 1.00 164.00 164.00 ) " id="129" />
    <path d="M 11.085 22.137 14.2178 8.273999 " style="stroke:rgb(255,255,255);fill:none;stroke-linecap:butt;stroke-miterlimit:9;opacity:1;stroke-width:2;stroke-linejoin:miter;" transform="matrix(1.00 0.00 0.00 1.00 164.00 164.00 ) " id="130" />
    <ellipse id="131" cy="15.15" cx="20.49" transform="matrix(1.00 0.00 0.00 1.00 164.00 164.00 ) " rx="4.18" ry="4.18" style="stroke:rgb(255,255,255);fill:none;stroke-linecap:butt;stroke-miterlimit:9;opacity:1;stroke-width:2;stroke-linejoin:miter;" />
    <text id="132" transform="matrix(1.00 0.00 0.00 1.00 0.00 0.00 ) " x="164.00px" y="199.00px" style="stroke:none;clip-path:url(#134_text_clipper);font-family:Microsoft Sans Serif;font-size:8.25pt;opacity:1;">
      <tspan dy="8.25pt" id="136">SerialWrite</tspan>
    </text>
    <text id="138" transform="matrix(1.00 0.00 0.00 1.00 0.00 0.00 ) " x="164.00px" y="211.45px" style="stroke:none;clip-path:url(#140_text_clipper);font-family:Microsoft Sans Serif;font-size:8.25pt;opacity:1;">
      <tspan dy="8.25pt" id="142">Line</tspan>
    </text>
    <path d="M 31.179 5.2 C 34.9985 11.0918 34.9814 18.682 31.13552 24.557 " style="stroke:rgb(169,169,169);fill:none;stroke-linecap:butt;stroke-miterlimit:9;opacity:1;stroke-width:2;stroke-linejoin:miter;" transform="matrix(1.00 0.00 0.00 1.00 84.00 4.00 ) " id="144" />
    <ellipse id="145" cy="15.00" cx="15.00" transform="matrix(1.00 0.00 0.00 1.00 84.00 4.00 ) " rx="15.00" ry="15.00" style="stroke:none;opacity:1;fill:rgb(91,178,126);" />
    <path d="M 7.3965 19.566 7.3965 10.8433 " style="stroke:rgb(255,255,255);fill:none;stroke-linecap:butt;stroke-miterlimit:9;opacity:1;stroke-width:2;stroke-linejoin:miter;" transform="matrix(1.00 0.00 0.00 1.00 84.00 4.00 ) " id="146" />
    <path d="M 11.085 22.137 14.2178 8.273999 " style="stroke:rgb(255,255,255);fill:none;stroke-linecap:butt;stroke-miterlimit:9;opacity:1;stroke-width:2;stroke-linejoin:miter;" transform="matrix(1.00 0.00 0.00 1.00 84.00 4.00 ) " id="147" />
    <ellipse id="148" cy="15.15" cx="20.49" transform="matrix(1.00 0.00 0.00 1.00 84.00 4.00 ) " rx="4.18" ry="4.18" style="stroke:rgb(255,255,255);fill:none;stroke-linecap:butt;stroke-miterlimit:9;opacity:1;stroke-width:2;stroke-linejoin:miter;" />
    <text id="149" transform="matrix(1.00 0.00 0.00 1.00 0.00 0.00 ) " x="84.00px" y="39.00px" style="stroke:none;clip-path:url(#151_text_clipper);font-family:Microsoft Sans Serif;font-size:8.25pt;opacity:1;">
      <tspan dy="8.25pt" id="153">CreateSerial</tspan>
    </text>
    <text id="155" transform="matrix(1.00 0.00 0.00 1.00 0.00 0.00 ) " x="84.00px" y="51.45px" style="stroke:none;clip-path:url(#157_text_clipper);font-family:Microsoft Sans Serif;font-size:8.25pt;opacity:1;">
      <tspan dy="8.25pt" id="159">Port</tspan>
    </text>
    <path d="M 31.179 5.2 C 34.9985 11.0918 34.9814 18.682 31.13552 24.557 " style="stroke:rgb(169,169,169);fill:none;stroke-linecap:butt;stroke-miterlimit:9;opacity:1;stroke-width:2;stroke-linejoin:miter;" transform="matrix(1.00 0.00 0.00 1.00 84.00 164.00 ) " id="161" />
    <ellipse id="162" cy="15.00" cx="15.00" transform="matrix(1.00 0.00 0.00 1.00 84.00 164.00 ) " rx="15.00" ry="15.00" style="stroke:none;opacity:1;fill:rgb(91,178,126);" />
    <path d="M 11.656 8.2 11.99975 8.7 16.31225 14.7937 11.65605 21.4187 11.28105 21.9187 14.74985 21.9187 14.8436 21.7624 17.9998 17.0124 18.46855 17.7 21.15605 21.7624 21.2498 21.9187 24.7498 21.9187 24.40605 21.4187 19.65605 14.6687 24.06225 8.699997 24.406 8.199997 20.9998 8.199997 20.90605 8.324997 18.68725 11.4187 C 18.46251 11.7285 18.22333 12.1062 17.9685 12.4812 17.77046 12.1547 17.58677 11.8424 17.31225 11.4187 L 15.28105 8.356197 15.1873 8.199997 11.6561 8.199997 z " style="stroke:none;fill-rule:evenodd;opacity:1;fill:rgb(255,255,255);" transform="matrix(1.00 0.00 0.00 1.00 84.00 164.00 ) " id="168" />
    <path style="stroke:rgb(255,255,255);fill:none;stroke-linecap:butt;stroke-miterlimit:9;opacity:1;stroke-width:1.2496;stroke-linejoin:miter;" transform="matrix(1.00 0.00 0.00 1.00 84.00 164.00 ) " id="169" d="M 7.8593 10.494 8.8954 9.65137 13.0189 14.72177 11.9886 15.5597 " />
    <path style="stroke:rgb(255,255,255);fill:none;stroke-linecap:butt;stroke-miterlimit:9;opacity:1;stroke-width:1.2496;stroke-linejoin:miter;" transform="matrix(1.00 0.00 0.00 1.00 84.00 164.00 ) " id="170" d="M 5.1002 16.975 7.6877 14.8707 " />
    <path style="stroke:none;fill-rule:evenodd;opacity:1;fill:rgb(255,255,255);" transform="matrix(1.00 0.00 0.00 1.00 84.00 164.00 ) " id="171" d="M 8.8501 16.342 6.484699 13.4335 10.1863 12.8393 9.518199 14.5907 z " />
    <text id="172" transform="matrix(1.00 0.00 0.00 1.00 0.00 0.00 ) " x="84.00px" y="199.00px" style="stroke:none;clip-path:url(#174_text_clipper);font-family:Microsoft Sans Serif;font-size:8.25pt;opacity:1;">
      <tspan dy="8.25pt" id="176">Sensor</tspan>
    </text>
    <text id="178" transform="matrix(1.00 0.00 0.00 1.00 0.00 0.00 ) " x="84.00px" y="211.45px" style="stroke:none;clip-path:url(#180_text_clipper);font-family:Microsoft Sans Serif;font-size:8.25pt;opacity:1;">
      <tspan dy="8.25pt" id="182">Commands</tspan>
    </text>
    <line y1="259.00" style="stroke-dasharray:4.00 2.00 ;stroke:rgb(169,169,169);fill:none;stroke-linecap:butt;stroke-miterlimit:9;opacity:1;stroke-width:1;stroke-linejoin:miter;" id="184" x2="118.00" y2="259.00" x1="80.00" />
    <path d="M 15 0 C 15.40124 0 15.79355 0 16.1868 0.032679 L 17.4764 1.671279 C 18.19501 1.803959 18.878 1.976879 19.5521 2.217729 L 21.4286 1.483419 C 22.13968 1.823279 22.8289 2.226899 23.4726 2.670219 L 23.8493 4.621219 C 24.39461 5.086599 24.9133 5.605469 25.3788 6.150719 L 27.3298 6.494379 C 27.77262 7.137679 28.17707 7.860779 28.5166 8.57128 L 27.74584 10.44788 C 27.98674 11.12204 28.19601 11.80508 28.32852 12.52348 L 29.96712 13.81308 C 29.99807 14.2062 30.00009 14.59888 30.00009 14.99988 30.00009 15.39224 29.99671 15.76908 29.96712 16.15388 L 28.32852 17.43998 C 28.19832 18.14633 28.01721 18.85248 27.78226 19.51558 L 28.51657 21.42868 C 28.17593 22.14291 27.77461 22.82648 27.32977 23.47268 L 25.37877 23.81302 C 24.91321 24.35829 24.39455 24.87682 23.84927 25.34242 L 23.47257 27.32992 C 22.82847 27.77371 22.14007 28.17669 21.42857 28.51662 L 19.51567 27.74597 C 18.85121 27.98162 18.18377 28.19809 17.47627 28.32876 L 16.18677 29.93436 C 15.79348 29.965 15.40117 29.99982 14.99997 29.99982 14.59873 29.99982 14.17345 29.96607 13.78017 29.93436 L 12.55997 28.32876 C 11.86172 28.19999 11.14067 27.977 10.48427 27.74597 L 8.571372 28.51662 C 7.856242 28.17558 7.174472 27.7755 6.527372 27.32992 L 6.150662 25.30622 C 5.617232 24.84794 5.114162 24.34789 4.657562 23.81302 L 2.670162 23.47268 C 2.225282 22.82649 1.823962 22.14288 1.483362 21.42868 L 2.254122 19.51558 C 2.022912 18.85918 1.800192 18.13838 1.671442 17.43998 L 0.06584227 16.18678 C 0.03489427 15.79366 -9.272993E-05 15.4013 -9.272993E-05 14.99998 -9.272993E-05 14.59894 0.03489527 14.20625 0.06584227 13.81318 L 1.671442 12.52358 C 1.801892 11.81616 2.018542 11.14888 2.254122 10.48438 L 1.483362 8.571277 C 1.822922 7.860797 2.227392 7.137677 2.670162 6.494377 L 4.657562 6.150717 C 5.114192 5.615747 5.617242 5.115817 6.150662 4.657517 L 6.527372 2.670117 C 7.174102 2.224717 7.856672 1.824207 8.571372 1.483317 L 10.48427 2.217627 C 11.14757 1.982687 11.85387 1.801607 12.55997 1.671177 L 13.84607 0.0325768 C 14.23082 0.003004799 14.60761 -0.0001021996 14.99987 -0.0001021996 z " style="stroke:none;fill-rule:evenodd;opacity:1;fill:rgb(128,128,128);" transform="matrix(1.00 0.00 0.00 1.00 4.00 4.00 ) " id="185" />
    <path d="M 16.849 10.062 23.4027 10.062 M 16.6038 19.6084 23.3505 19.6084 M 12.3075 17.1615 7.5719 21.8971 M 7.577335 17.152 12.31704 21.8917 M 6.564136 10.0047 13.30904 10.0047 M 9.936636 6.6288 9.936636 13.3806 " style="stroke:rgb(255,255,255);fill:none;stroke-linecap:butt;stroke-miterlimit:9;opacity:1;stroke-width:2;stroke-linejoin:miter;" transform="matrix(1.00 0.00 0.00 1.00 4.00 4.00 ) " id="186" />
    <ellipse id="187" cy="16.33" cx="19.93" transform="matrix(1.00 0.00 0.00 1.00 4.00 4.00 ) " rx="1.30" ry="1.30" style="stroke:none;opacity:1;fill:rgb(255,255,255);" />
    <ellipse id="188" cy="22.83" cx="19.93" transform="matrix(1.00 0.00 0.00 1.00 4.00 4.00 ) " rx="1.30" ry="1.30" style="stroke:none;opacity:1;fill:rgb(255,255,255);" />
    <text id="189" transform="matrix(1.00 0.00 0.00 1.00 0.00 0.00 ) " x="4.00px" y="39.00px" style="stroke:none;clip-path:url(#191_text_clipper);font-family:Microsoft Sans Serif;font-size:8.25pt;opacity:1;">
      <tspan dy="8.25pt" id="193">PortName</tspan>
    </text>
    <path d="M 15 0 C 15.40124 0 15.79355 0 16.1868 0.032679 L 17.4764 1.671279 C 18.19501 1.803959 18.878 1.976879 19.5521 2.217729 L 21.4286 1.483419 C 22.13968 1.823279 22.8289 2.226899 23.4726 2.670219 L 23.8493 4.621219 C 24.39461 5.086599 24.9133 5.605469 25.3788 6.150719 L 27.3298 6.494379 C 27.77262 7.137679 28.17707 7.860779 28.5166 8.57128 L 27.74584 10.44788 C 27.98674 11.12204 28.19601 11.80508 28.32852 12.52348 L 29.96712 13.81308 C 29.99807 14.2062 30.00009 14.59888 30.00009 14.99988 30.00009 15.39224 29.99671 15.76908 29.96712 16.15388 L 28.32852 17.43998 C 28.19832 18.14633 28.01721 18.85248 27.78226 19.51558 L 28.51657 21.42868 C 28.17593 22.14291 27.77461 22.82648 27.32977 23.47268 L 25.37877 23.81302 C 24.91321 24.35829 24.39455 24.87682 23.84927 25.34242 L 23.47257 27.32992 C 22.82847 27.77371 22.14007 28.17669 21.42857 28.51662 L 19.51567 27.74597 C 18.85121 27.98162 18.18377 28.19809 17.47627 28.32876 L 16.18677 29.93436 C 15.79348 29.965 15.40117 29.99982 14.99997 29.99982 14.59873 29.99982 14.17345 29.96607 13.78017 29.93436 L 12.55997 28.32876 C 11.86172 28.19999 11.14067 27.977 10.48427 27.74597 L 8.571372 28.51662 C 7.856242 28.17558 7.174472 27.7755 6.527372 27.32992 L 6.150662 25.30622 C 5.617232 24.84794 5.114162 24.34789 4.657562 23.81302 L 2.670162 23.47268 C 2.225282 22.82649 1.823962 22.14288 1.483362 21.42868 L 2.254122 19.51558 C 2.022912 18.85918 1.800192 18.13838 1.671442 17.43998 L 0.06584227 16.18678 C 0.03489427 15.79366 -9.272993E-05 15.4013 -9.272993E-05 14.99998 -9.272993E-05 14.59894 0.03489527 14.20625 0.06584227 13.81318 L 1.671442 12.52358 C 1.801892 11.81616 2.018542 11.14888 2.254122 10.48438 L 1.483362 8.571277 C 1.822922 7.860797 2.227392 7.137677 2.670162 6.494377 L 4.657562 6.150717 C 5.114192 5.615747 5.617242 5.115817 6.150662 4.657517 L 6.527372 2.670117 C 7.174102 2.224717 7.856672 1.824207 8.571372 1.483317 L 10.48427 2.217627 C 11.14757 1.982687 11.85387 1.801607 12.55997 1.671177 L 13.84607 0.0325768 C 14.23082 0.003004799 14.60761 -0.0001021996 14.99987 -0.0001021996 z " style="stroke:none;fill-rule:evenodd;opacity:1;fill:rgb(128,128,128);" transform="matrix(1.00 0.00 0.00 1.00 4.00 84.00 ) " id="195" />
    <path d="M 16.849 10.062 23.4027 10.062 M 16.6038 19.6084 23.3505 19.6084 M 12.3075 17.1615 7.5719 21.8971 M 7.577335 17.152 12.31704 21.8917 M 6.564136 10.0047 13.30904 10.0047 M 9.936636 6.6288 9.936636 13.3806 " style="stroke:rgb(255,255,255);fill:none;stroke-linecap:butt;stroke-miterlimit:9;opacity:1;stroke-width:2;stroke-linejoin:miter;" transform="matrix(1.00 0.00 0.00 1.00 4.00 84.00 ) " id="196" />
    <ellipse id="197" cy="16.33" cx="19.93" transform="matrix(1.00 0.00 0.00 1.00 4.00 84.00 ) " rx="1.30" ry="1.30" style="stroke:none;opacity:1;fill:rgb(255,255,255);" />
    <ellipse id="198" cy="22.83" cx="19.93" transform="matrix(1.00 0.00 0.00 1.00 4.00 84.00 ) " rx="1.30" ry="1.30" style="stroke:none;opacity:1;fill:rgb(255,255,255);" />
    <text id="199" transform="matrix(1.00 0.00 0.00 1.00 0.00 0.00 ) " x="4.00px" y="119.00px" style="stroke:none;clip-path:url(#201_text_clipper);font-family:Microsoft Sans Serif;font-size:8.25pt;opacity:1;">
      <tspan dy="8.25pt" id="203">BaudRate</tspan>
    </text>
    <path d="M 15 0 C 15.40124 0 15.79355 0 16.1868 0.032679 L 17.4764 1.671279 C 18.19501 1.803959 18.878 1.976879 19.5521 2.217729 L 21.4286 1.483419 C 22.13968 1.823279 22.8289 2.226899 23.4726 2.670219 L 23.8493 4.621219 C 24.39461 5.086599 24.9133 5.605469 25.3788 6.150719 L 27.3298 6.494379 C 27.77262 7.137679 28.17707 7.860779 28.5166 8.57128 L 27.74584 10.44788 C 27.98674 11.12204 28.19601 11.80508 28.32852 12.52348 L 29.96712 13.81308 C 29.99807 14.2062 30.00009 14.59888 30.00009 14.99988 30.00009 15.39224 29.99671 15.76908 29.96712 16.15388 L 28.32852 17.43998 C 28.19832 18.14633 28.01721 18.85248 27.78226 19.51558 L 28.51657 21.42868 C 28.17593 22.14291 27.77461 22.82648 27.32977 23.47268 L 25.37877 23.81302 C 24.91321 24.35829 24.39455 24.87682 23.84927 25.34242 L 23.47257 27.32992 C 22.82847 27.77371 22.14007 28.17669 21.42857 28.51662 L 19.51567 27.74597 C 18.85121 27.98162 18.18377 28.19809 17.47627 28.32876 L 16.18677 29.93436 C 15.79348 29.965 15.40117 29.99982 14.99997 29.99982 14.59873 29.99982 14.17345 29.96607 13.78017 29.93436 L 12.55997 28.32876 C 11.86172 28.19999 11.14067 27.977 10.48427 27.74597 L 8.571372 28.51662 C 7.856242 28.17558 7.174472 27.7755 6.527372 27.32992 L 6.150662 25.30622 C 5.617232 24.84794 5.114162 24.34789 4.657562 23.81302 L 2.670162 23.47268 C 2.225282 22.82649 1.823962 22.14288 1.483362 21.42868 L 2.254122 19.51558 C 2.022912 18.85918 1.800192 18.13838 1.671442 17.43998 L 0.06584227 16.18678 C 0.03489427 15.79366 -9.272993E-05 15.4013 -9.272993E-05 14.99998 -9.272993E-05 14.59894 0.03489527 14.20625 0.06584227 13.81318 L 1.671442 12.52358 C 1.801892 11.81616 2.018542 11.14888 2.254122 10.48438 L 1.483362 8.571277 C 1.822922 7.860797 2.227392 7.137677 2.670162 6.494377 L 4.657562 6.150717 C 5.114192 5.615747 5.617242 5.115817 6.150662 4.657517 L 6.527372 2.670117 C 7.174102 2.224717 7.856672 1.824207 8.571372 1.483317 L 10.48427 2.217627 C 11.14757 1.982687 11.85387 1.801607 12.55997 1.671177 L 13.84607 0.0325768 C 14.23082 0.003004799 14.60761 -0.0001021996 14.99987 -0.0001021996 z " style="stroke:none;fill-rule:evenodd;opacity:1;fill:rgb(128,128,128);" transform="matrix(1.00 0.00 0.00 1.00 4.00 164.00 ) " id="205" />
    <path d="M 16.849 10.062 23.4027 10.062 M 16.6038 19.6084 23.3505 19.6084 M 12.3075 17.1615 7.5719 21.8971 M 7.577335 17.152 12.31704 21.8917 M 6.564136 10.0047 13.30904 10.0047 M 9.936636 6.6288 9.936636 13.3806 " style="stroke:rgb(255,255,255);fill:none;stroke-linecap:butt;stroke-miterlimit:9;opacity:1;stroke-width:2;stroke-linejoin:miter;" transform="matrix(1.00 0.00 0.00 1.00 4.00 164.00 ) " id="206" />
    <ellipse id="207" cy="16.33" cx="19.93" transform="matrix(1.00 0.00 0.00 1.00 4.00 164.00 ) " rx="1.30" ry="1.30" style="stroke:none;opacity:1;fill:rgb(255,255,255);" />
    <ellipse id="208" cy="22.83" cx="19.93" transform="matrix(1.00 0.00 0.00 1.00 4.00 164.00 ) " rx="1.30" ry="1.30" style="stroke:none;opacity:1;fill:rgb(255,255,255);" />
    <text id="209" transform="matrix(1.00 0.00 0.00 1.00 0.00 0.00 ) " x="4.00px" y="199.00px" style="stroke:none;clip-path:url(#211_text_clipper);font-family:Microsoft Sans Serif;font-size:8.25pt;opacity:1;">
      <tspan dy="8.25pt" id="213">Sensor</tspan>
    </text>
    <text id="215" transform="matrix(1.00 0.00 0.00 1.00 0.00 0.00 ) " x="4.00px" y="211.45px" style="stroke:none;clip-path:url(#217_text_clipper);font-family:Microsoft Sans Serif;font-size:8.25pt;opacity:1;">
      <tspan dy="8.25pt" id="219">Commands</tspan>
    </text>
    <text id="221" transform="matrix(1.00 0.00 0.00 1.00 0.00 0.00 ) " x="4.00px" y="223.90px" style="stroke:none;clip-path:url(#223_text_clipper);font-family:Microsoft Sans Serif;font-size:8.25pt;opacity:1;">
      <tspan dy="8.25pt" id="225">SubjectName</tspan>
    </text>
  </g>
  <defs id="clips_hatches_and_gradients">
    <clipPath id="54_text_clipper">
      <rect x="244.00" y="39.00" width="74.20" height="13.83" id="55" />
    </clipPath>
    <clipPath id="70_text_clipper">
      <rect x="244.00" y="199.00" width="50.31" height="27.65" id="71" />
    </clipPath>
    <clipPath id="76_text_clipper">
      <rect x="244.00" y="211.45" width="50.31" height="27.65" id="77" />
    </clipPath>
    <clipPath id="95_text_clipper">
      <rect x="164.00" y="39.00" width="59.84" height="27.65" id="96" />
    </clipPath>
    <clipPath id="101_text_clipper">
      <rect x="164.00" y="51.45" width="59.84" height="27.65" id="102" />
    </clipPath>
    <clipPath id="117_text_clipper">
      <rect x="164.00" y="119.00" width="74.20" height="27.65" id="118" />
    </clipPath>
    <clipPath id="123_text_clipper">
      <rect x="164.00" y="131.45" width="74.20" height="27.65" id="124" />
    </clipPath>
    <clipPath id="134_text_clipper">
      <rect x="164.00" y="199.00" width="59.26" height="27.65" id="135" />
    </clipPath>
    <clipPath id="140_text_clipper">
      <rect x="164.00" y="211.45" width="59.26" height="27.65" id="141" />
    </clipPath>
    <clipPath id="151_text_clipper">
      <rect x="84.00" y="39.00" width="66.76" height="27.65" id="152" />
    </clipPath>
    <clipPath id="157_text_clipper">
      <rect x="84.00" y="51.45" width="66.76" height="27.65" id="158" />
    </clipPath>
    <clipPath id="174_text_clipper">
      <rect x="84.00" y="199.00" width="61.59" height="27.65" id="175" />
    </clipPath>
    <clipPath id="180_text_clipper">
      <rect x="84.00" y="211.45" width="61.59" height="27.65" id="181" />
    </clipPath>
    <clipPath id="191_text_clipper">
      <rect x="4.00" y="39.00" width="54.66" height="13.83" id="192" />
    </clipPath>
    <clipPath id="201_text_clipper">
      <rect x="4.00" y="119.00" width="54.05" height="13.83" id="202" />
    </clipPath>
    <clipPath id="211_text_clipper">
      <rect x="4.00" y="199.00" width="71.74" height="41.48" id="212" />
    </clipPath>
    <clipPath id="217_text_clipper">
      <rect x="4.00" y="211.45" width="71.74" height="41.48" id="218" />
    </clipPath>
    <clipPath id="223_text_clipper">
      <rect x="4.00" y="223.90" width="71.74" height="41.48" id="224" />
    </clipPath>
  </defs>
</svg>